<?xml version="1.0" encoding="iso-8859-1"?>
<!-- Generator: Adobe Illustrator 16.0.0, SVG Export Plug-In . SVG Version: 6.00 Build 0)  -->
<!DOCTYPE svg PUBLIC "-//W3C//DTD SVG 1.1//EN" "http://www.w3.org/Graphics/SVG/1.1/DTD/svg11.dtd">
<svg version="1.1" id="Capa_1" xmlns="http://www.w3.org/2000/svg" xmlns:xlink="http://www.w3.org/1999/xlink" x="0px" y="0px"
	 width="20.549px" height="21.874px" viewBox="0 0 20.549 21.874" style="enable-background:new 0 0 20.549 21.874;"
	 xml:space="preserve">
<g>
	<g>
		<path style="fill:#2D2D2D;" d="M19.944,21.874H16.83c-0.25,0-0.475-0.153-0.564-0.386l-2.262-5.873H6.201l-2.125,5.861
			c-0.086,0.239-0.313,0.398-0.568,0.398H0.604c-0.199,0-0.385-0.098-0.499-0.262c-0.112-0.164-0.137-0.373-0.065-0.559L7.976,0.387
			C8.065,0.153,8.29,0,8.54,0h2.947c0.245,0,0.466,0.148,0.559,0.375l8.458,20.665c0.077,0.187,0.055,0.399-0.057,0.566
			C20.334,21.773,20.146,21.874,19.944,21.874z M7.439,12.179H12.7l-1.849-4.906c-0.31-0.819-0.584-1.574-0.821-2.262
			C9.846,5.655,9.637,6.295,9.403,6.93L7.439,12.179z"/>
	</g>
</g>
<g>
</g>
<g>
</g>
<g>
</g>
<g>
</g>
<g>
</g>
<g>
</g>
<g>
</g>
<g>
</g>
<g>
</g>
<g>
</g>
<g>
</g>
<g>
</g>
<g>
</g>
<g>
</g>
<g>
</g>
</svg>
