<?xml version="1.0" encoding="utf-8"?>
<!-- Generator: Adobe Illustrator 16.0.4, SVG Export Plug-In . SVG Version: 6.00 Build 0)  -->
<!DOCTYPE svg PUBLIC "-//W3C//DTD SVG 1.1//EN" "http://www.w3.org/Graphics/SVG/1.1/DTD/svg11.dtd">
<svg version="1.1" id="Capa_1" xmlns="http://www.w3.org/2000/svg" xmlns:xlink="http://www.w3.org/1999/xlink" x="0px" y="0px"
	 width="512px" height="512px" viewBox="0 0 512 512" enable-background="new 0 0 512 512" xml:space="preserve">
<path d="M353.94,242.326C372.689,220.055,384,191.322,384,160c0-70.58-57.421-128-128-128h-64h-64H96v448h32h64h96
	c70.579,0,128-57.421,128-128C416,305.521,391.101,264.752,353.94,242.326z M192,96h50.75c27.984,0,50.75,28.71,50.75,64
	s-22.766,64-50.75,64H192V96z M271.5,416H192V288h79.5c29.225,0,53,28.71,53,64S300.725,416,271.5,416z"/>
</svg>
