<?xml version="1.0" encoding="utf-8"?>
<!-- Generator: Adobe Illustrator 18.0.0, SVG Export Plug-In . SVG Version: 6.00 Build 0)  -->
<!DOCTYPE svg PUBLIC "-//W3C//DTD SVG 1.1//EN" "http://www.w3.org/Graphics/SVG/1.1/DTD/svg11.dtd">
<svg version="1.1" id="Capa_1" xmlns="http://www.w3.org/2000/svg" xmlns:xlink="http://www.w3.org/1999/xlink" x="0px" y="0px"
	 width="1000px" height="1000px" viewBox="0 0 1000 1000" enable-background="new 0 0 1000 1000" xml:space="preserve">
<path d="M926.1,94.1H75.3c-38.7,0-70,31.3-70,70s31.3,70,70,70h850.9c38.7,0,70-31.3,70-70S964.8,94.1,926.1,94.1z"/>
<path d="M926.1,575.4H75.3c-38.7,0-70,31.3-70,70s31.3,70,70,70h850.9c38.7,0,70-31.3,70-70S964.8,575.4,926.1,575.4z"/>
<path d="M809.4,474.7c38.7,0,70-31.3,70-70s-31.3-70-70-70H192.1c-38.7,0-70,31.3-70,70s31.3,70,70,70H809.4z"/>
<path d="M687.8,956c38.7,0,70-31.3,70-70s-31.3-70-70-70H313.6c-38.7,0-70,31.3-70,70s31.3,70,70,70H687.8z"/>
</svg>
