<?xml version="1.0" encoding="utf-8"?>
<!-- Generator: Adobe Illustrator 16.0.0, SVG Export Plug-In . SVG Version: 6.00 Build 0)  -->
<!DOCTYPE svg PUBLIC "-//W3C//DTD SVG 1.1//EN" "http://www.w3.org/Graphics/SVG/1.1/DTD/svg11.dtd">
<svg version="1.1" id="Layer_1" xmlns="http://www.w3.org/2000/svg" xmlns:xlink="http://www.w3.org/1999/xlink" x="0px" y="0px"
	 width="96px" height="96px" viewBox="0 0 96 96" enable-background="new 0 0 96 96" xml:space="preserve">
<g>
	<path d="M73.414,0.631H50.675L39.263,35.192h7.46c2.792,0,5.269,1.353,6.829,3.431l0.384-1.452l7.19-21.336l2.339-0.013
		l7.534,22.814H53.563c1.065,1.426,1.704,3.187,1.704,5.099v9.924h18.918l3.341,12.704h17.515L73.414,0.631z"/>
	<path d="M52.178,85.862c-0.887-2.972-1.488-12.397-1.488-19.766c0-0.903-0.235-1.75-0.644-2.486
		c0.41-0.914,0.642-1.923,0.642-2.986V47.129c0-4.04-3.286-7.326-7.326-7.326h-6.926c-0.063-0.833-0.107-1.664-0.133-2.474
		c-0.029-0.729-0.039-1.406-0.042-2.073c-0.009-0.703,0.002-1.277,0.033-1.776c0.059-1.079,0.188-2.124,0.378-3.057
		c0.205-1,0.431-1.649,0.518-1.883c0.015-0.041,0.03-0.08,0.044-0.121c0.056-0.161,0.105-0.281,0.136-0.351
		c2.836-5.413,0.768-12.133-4.634-15.013c-1.597-0.85-3.393-1.3-5.195-1.307c-1.803,0.007-3.599,0.457-5.195,1.307
		c-5.402,2.88-7.47,9.6-4.634,15.013c0.031,0.069,0.081,0.189,0.136,0.351c0.014,0.041,0.029,0.08,0.044,0.121
		c0.087,0.233,0.313,0.883,0.518,1.883c0.19,0.933,0.32,1.978,0.378,3.057c0.031,0.499,0.042,1.073,0.033,1.776
		c-0.004,0.667-0.013,1.344-0.042,2.073c-0.026,0.81-0.07,1.641-0.133,2.474H11.72c-4.04,0-7.326,3.286-7.326,7.326v13.495
		c0,1.063,0.232,2.072,0.642,2.986c-0.409,0.736-0.644,1.583-0.644,2.486c0,7.368-0.601,16.794-1.488,19.766
		c-1.821,1.499-2.168,3.619-1.828,5.191c0.936,4.315,5.459,4.315,6.945,4.315c3.454,0,9.681-0.606,9.944-0.632
		c0.402-0.04,0.791-0.126,1.159-0.251c0.394,0.098,0.804,0.151,1.221,0.152l7.196,0.035l7.196-0.035
		c0.417-0.001,0.827-0.055,1.221-0.152c0.368,0.125,0.757,0.211,1.159,0.251c0.263,0.025,6.491,0.632,9.944,0.632
		c1.486,0,6.01,0,6.945-4.315C54.346,89.481,54,87.361,52.178,85.862z M37.706,89.829l-2.748-11.988l-1.375,11.871l-13.3-0.006
		l-2.906-6.99l0,7.113c0,0-13.952,1.368-10.943,0c3.009-1.367,3.009-23.527,3.009-23.527h18.098h18.098c0,0,0,22.16,3.009,23.527
		C51.658,91.197,37.706,89.829,37.706,89.829z"/>
</g>
</svg>
