<?xml version="1.0" encoding="utf-8"?>
<!-- Generator: Adobe Illustrator 16.0.4, SVG Export Plug-In . SVG Version: 6.00 Build 0)  -->
<!DOCTYPE svg PUBLIC "-//W3C//DTD SVG 1.1//EN" "http://www.w3.org/Graphics/SVG/1.1/DTD/svg11.dtd">
<svg version="1.1" id="Capa_1" xmlns="http://www.w3.org/2000/svg" xmlns:xlink="http://www.w3.org/1999/xlink" x="0px" y="0px"
	 width="512px" height="512px" viewBox="0 0 512 512" enable-background="new 0 0 512 512" xml:space="preserve">
<path d="M419.661,148.208C458.483,175.723,490.346,212.754,512,256c-47.561,94.979-144.343,160-256,160
	c-31.283,0-61.396-5.106-89.589-14.542l38.978-38.978C221.918,366.13,238.875,368,256,368c44.779,0,88.427-12.743,126.223-36.852
	c30.081-19.188,55.572-44.889,74.719-75.149c-18.526-29.283-43.008-54.275-71.825-73.247L419.661,148.208z M256,349
	c-11.362,0-22.376-1.488-32.864-4.268l156.592-156.591C382.51,198.627,384,209.638,384,221C384,291.691,326.692,349,256,349z M480,0
	h-26.869L343.325,109.806C315.787,100.844,286.448,96,256,96C144.341,96,47.559,161.021,0,256
	c21.329,42.596,52.564,79.154,90.597,106.534L0,453.131V480h26.869L480,26.869V0z M208,157c24.022,0,43.923,17.647,47.446,40.685
	l-54.762,54.762C177.647,248.923,160,229.022,160,205C160,178.49,181.49,157,208,157z M55.058,256
	c19.146-30.262,44.637-55.962,74.717-75.148c1.959-1.25,3.938-2.461,5.929-3.65C130.725,190.866,128,205.613,128,221
	c0,29.262,9.825,56.225,26.349,77.781l-29.275,29.275C97.038,309.234,73.197,284.67,55.058,256z"/>
</svg>
