<?xml version="1.0" encoding="utf-8"?>
<!-- Generator: Adobe Illustrator 18.0.0, SVG Export Plug-In . SVG Version: 6.00 Build 0)  -->
<!DOCTYPE svg PUBLIC "-//W3C//DTD SVG 1.1//EN" "http://www.w3.org/Graphics/SVG/1.1/DTD/svg11.dtd">
<svg version="1.1" id="Capa_1" xmlns="http://www.w3.org/2000/svg" xmlns:xlink="http://www.w3.org/1999/xlink" x="0px" y="0px"
	 width="128px" height="128px" viewBox="0 0 128 128" enable-background="new 0 0 128 128" xml:space="preserve">
<path d="M11.4,55c0,3.9,3.1,7,7,7c1,0,1.9-0.2,2.7-0.6v57.3c0,3.3,2.7,6,6,6h73.7c3.3,0,6-2.7,6-6V61.4c0.9,0.4,1.8,0.6,2.8,0.6
	c3.9,0,7-3.1,7-7c0-29.2-23.6-53-52.7-53S11.4,25.8,11.4,55z M97.7,72.6c-1.4,2-3.3,3.7-4.4,5.9c-1.1,2.2-1,4.6-0.9,7
	c0.1,1.6,0.2,3.2-0.2,4.8c-0.4,1.5-1.5,3-3,3.5C87,94.4,84.6,93,83.5,91s-1.1-4.3-0.9-6.6c0.3-3.1,2-14-4.5-11.8
	c-3.1,1.1-5.9,0.7-8.6-1.1c-2.1-1.4-4.5-3-7-2.3c-2.6,0.8-3.8,3.8-4.3,6.4c-0.5,2.9-1,5.5-0.4,8.4c0.3,1.8,0.8,3.5,0.7,5.3
	c-0.1,1.8-0.9,3.6-2.4,4.6c-1.6,1-3.7,0.8-5.3-0.2c-1.6-1-2.6-2.7-3.1-4.4C46.5,84.9,50,73,43.2,71.5c-2-0.4-3.5,0.6-4.4,2.3
	c-0.6,1-1.1,2.1-2.2,2.5c-3.4,1.2-8-2.2-8-7.1c0-2.3-0.1-4.5-0.1-6.8v-4c0-1.7,1.4-3.2,3.2-3.2h64.7c1.8,0,3.2,1.4,3.2,3.2v4
	c0,0.1,0,0.1,0,0.2C99.5,62.5,99.9,69.5,97.7,72.6z M64,16c19.1,0,35,14.1,38.1,32.5c-0.4-0.1-0.9-0.1-1.3-0.1H27.1
	c-0.4,0-0.8,0-1.2,0.1C29,30.1,44.9,16,64,16z"/>
</svg>
