<?xml version="1.0" encoding="utf-8"?>
<!-- Generator: Adobe Illustrator 16.0.4, SVG Export Plug-In . SVG Version: 6.00 Build 0)  -->
<!DOCTYPE svg PUBLIC "-//W3C//DTD SVG 1.1//EN" "http://www.w3.org/Graphics/SVG/1.1/DTD/svg11.dtd">
<svg version="1.1" id="Capa_1" xmlns="http://www.w3.org/2000/svg" xmlns:xlink="http://www.w3.org/1999/xlink" x="0px" y="0px"
	 width="612px" height="792px" viewBox="0 0 612 792" enable-background="new 0 0 612 792" xml:space="preserve">
<path d="M236.844,198.936c-1.632-4.488-4.692-6.732-9.18-6.732h-78.948c-4.488,0-7.548,2.244-9.18,6.732L19.584,593.064
	c-0.816,3.672-0.408,6.322,1.224,7.954c1.632,2.448,4.284,3.674,7.956,3.674h70.992c4.896,0,7.956-2.244,9.18-6.732l20.196-70.992
	h118.117l20.196,70.992c1.224,4.488,4.08,6.732,8.568,6.732h71.604h0.61c2.448,0,4.592-0.817,6.428-2.448s2.754-3.876,2.754-6.732
	c0-0.815-0.409-2.447-1.226-4.896L236.844,198.936z M147.492,450.468l40.392-144.432l41.004,144.432H147.492z M564.263,336.636
	c-19.176-17.544-46.103-26.316-80.782-26.316c-21.624,0-41.616,3.57-59.976,10.709c-18.361,7.14-34.476,17.646-48.348,31.518
	c-3.266,3.264-3.876,6.936-1.836,11.016l22.644,39.167c1.224,2.448,3.467,4.081,6.732,4.896c2.854,0.817,5.508,0,7.956-2.448
	c18.768-19.176,39.575-28.764,62.424-28.764c29.375,0,44.062,14.077,44.062,42.228v17.748
	c-17.135-13.464-38.351-20.194-63.646-20.194c-11.424,0-22.746,1.937-33.966,5.812c-11.221,3.876-21.218,9.792-29.988,17.748
	c-8.773,7.956-15.912,18.157-21.42,30.602c-5.508,12.443-8.262,27.028-8.262,43.758c0,16.318,2.65,30.6,7.954,42.84
	c5.306,12.24,12.444,22.542,21.422,30.906c8.975,8.363,18.971,14.688,29.986,18.972c11.017,4.284,22.44,6.426,34.272,6.426
	s23.255-1.836,34.271-5.508c11.018-3.672,20.81-8.975,29.376-15.912v5.508c0,2.448,0.918,4.592,2.754,6.428
	c1.838,1.836,3.979,2.754,6.428,2.754h57.526c2.448,0,4.591-0.918,6.428-2.754c1.836-1.836,2.754-3.979,2.754-6.428V411.3
	C593.028,379.068,583.44,354.18,564.263,336.636z M517.14,534.923c-8.976,13.872-23.256,20.81-42.84,20.81
	c-11.832,0-21.215-3.774-28.15-11.322c-6.937-7.548-10.404-17.443-10.404-29.684c0-12.238,3.467-22.234,10.404-29.986
	c6.935-7.752,16.318-11.628,28.15-11.628c5.712,0,12.854,1.326,21.42,3.978c8.568,2.653,15.708,8.67,21.42,18.054V534.923z"/>
</svg>
