<?xml version="1.0" encoding="iso-8859-1"?>
<!-- Generator: Adobe Illustrator 18.0.0, SVG Export Plug-In . SVG Version: 6.00 Build 0)  -->
<!DOCTYPE svg PUBLIC "-//W3C//DTD SVG 1.1//EN" "http://www.w3.org/Graphics/SVG/1.1/DTD/svg11.dtd">
<svg version="1.1" id="Capa_1" xmlns="http://www.w3.org/2000/svg" xmlns:xlink="http://www.w3.org/1999/xlink" x="0px" y="0px"
	 viewBox="0 0 32 32" style="enable-background:new 0 0 32 32;" xml:space="preserve">
<g id="_x32__4_">
	<g>
		<path style="fill-rule:evenodd;clip-rule:evenodd;" d="M12.756,17.787l-4.778,4.778L8,20c0-0.552-0.448-1-1-1
			c-0.552,0-1,0.448-1,1v5c0,0.296,0.122,0.535,0.316,0.7C6.497,25.885,6.749,26,7.028,26L12,26c0.552,0,1-0.448,1-1
			c0-0.552-0.448-1-1-1l-2.629,0l4.799-4.799L12.756,17.787z M12,8c0.552,0,1-0.448,1-1c0-0.552-0.448-1-1-1L7.028,6
			C6.749,6,6.497,6.116,6.316,6.3C6.122,6.465,6,6.704,6,7v5c0,0.552,0.448,1,1,1c0.552,0,1-0.448,1-1L7.978,9.434l4.778,4.778
			l1.414-1.414L9.372,8L12,8z M25,19c-0.552,0-1,0.448-1,1l0.022,2.566l-4.778-4.778l-1.414,1.414L22.629,24L20,24
			c-0.552,0-1,0.448-1,1c0,0.552,0.448,1,1,1l4.972,0c0.28,0,0.531-0.116,0.712-0.301C25.878,25.535,26,25.296,26,25v-5
			C26,19.448,25.552,19,25,19z M24.972,6L20,6c-0.552,0-1,0.448-1,1c0,0.552,0.448,1,1,1l2.628,0l-4.799,4.799l1.414,1.414
			l4.778-4.778L24,12c0,0.552,0.448,1,1,1c0.552,0,1-0.448,1-1V7c0-0.296-0.123-0.535-0.316-0.7C25.503,6.116,25.251,6,24.972,6z
			 M28,0H4C1.791,0,0,1.791,0,4v24c0,2.209,1.791,4,4,4h24c2.209,0,4-1.791,4-4V4C32,1.791,30.209,0,28,0z M30,28
			c0,1.105-0.895,2-2,2H4c-1.105,0-2-0.895-2-2V4c0-1.104,0.895-2,2-2h24c1.105,0,2,0.896,2,2V28z"/>
	</g>
</g>
<g>
</g>
<g>
</g>
<g>
</g>
<g>
</g>
<g>
</g>
<g>
</g>
<g>
</g>
<g>
</g>
<g>
</g>
<g>
</g>
<g>
</g>
<g>
</g>
<g>
</g>
<g>
</g>
<g>
</g>
</svg>
