<?xml version="1.0" encoding="utf-8"?>
<!-- Generator: Adobe Illustrator 16.0.0, SVG Export Plug-In . SVG Version: 6.00 Build 0)  -->
<!DOCTYPE svg PUBLIC "-//W3C//DTD SVG 1.1//EN" "http://www.w3.org/Graphics/SVG/1.1/DTD/svg11.dtd">
<svg version="1.1" id="Layer_1" xmlns="http://www.w3.org/2000/svg" xmlns:xlink="http://www.w3.org/1999/xlink" x="0px" y="0px"
	 width="32px" height="32px" viewBox="0 0 32 32" enable-background="new 0 0 32 32" xml:space="preserve">
<path d="M31.537,15.137c-0.278-0.385-6.938-9.433-15.485-9.433c-8.547,0-15.207,9.049-15.486,9.433
	c-0.374,0.515-0.374,1.212,0,1.726c0.279,0.387,6.939,9.434,15.486,9.434c8.548,0,15.207-9.048,15.485-9.434
	C31.911,16.349,31.911,15.651,31.537,15.137z M13.596,14.08c-0.531,0.75-0.655,1.727-0.368,2.907c0.192,0.79-0.291,1.582-1.08,1.774
	C12.032,18.79,11.914,18.8,11.8,18.8c-0.662,0-1.263-0.451-1.426-1.121c-0.655-2.695,0.183-4.467,1-5.505
	c1.117-1.419,2.854-2.155,3.923-2.155c0.002,0,0.003,0,0.003,0c0.811,0,1.469,0.63,1.467,1.441
	c-0.002,0.803-0.648,1.439-1.447,1.453C15.06,12.94,14.17,13.271,13.596,14.08z M19.107,21.018c-1.019,0-1.844-0.823-1.844-1.842
	c0-1.02,0.825-1.846,1.844-1.846c1.018,0,1.844,0.826,1.844,1.846C20.95,20.194,20.124,21.018,19.107,21.018z M3.634,16
	c1.312-1.559,4.371-4.822,8.157-6.428c-2.19,1.369-3.647,3.801-3.647,6.575c0,2.3,1.003,4.366,2.596,5.784
	C7.443,20.224,4.822,17.411,3.634,16z M20.583,22.314c1.859-1.416,3.061-3.651,3.061-6.167c0-3.046-1.757-5.68-4.313-6.946
	c4.234,1.409,7.719,5.111,9.142,6.801C27.194,17.524,24.25,20.674,20.583,22.314z"/>
</svg>
