<?xml version="1.0" encoding="iso-8859-1"?>
<!-- Generator: Adobe Illustrator 18.0.0, SVG Export Plug-In . SVG Version: 6.00 Build 0)  -->
<!DOCTYPE svg PUBLIC "-//W3C//DTD SVG 1.1//EN" "http://www.w3.org/Graphics/SVG/1.1/DTD/svg11.dtd">
<svg version="1.1" id="Capa_1" xmlns="http://www.w3.org/2000/svg" xmlns:xlink="http://www.w3.org/1999/xlink" x="0px" y="0px"
	 viewBox="0 0 28 28" style="enable-background:new 0 0 28 28;" xml:space="preserve">
<g id="_x37__19_">
	<g>
		<path style="fill-rule:evenodd;clip-rule:evenodd;" d="M2,4h24c1.105,0,2-0.896,2-2s-0.895-2-2-2H2C0.895,0,0,0.895,0,2
			S0.895,4,2,4z M26,8H2c-1.105,0-2,0.895-2,2c0,1.104,0.895,2,2,2h24c1.105,0,2-0.895,2-2C28,8.895,27.105,8,26,8z M26,16H2
			c-1.105,0-2,0.895-2,2c0,1.105,0.895,2,2,2h24c1.105,0,2-0.895,2-2C28,16.895,27.105,16,26,16z M15,24H2c-1.105,0-2,0.895-2,2
			c0,1.105,0.895,2,2,2h13c1.105,0,2-0.895,2-2C17,24.895,16.105,24,15,24z"/>
	</g>
</g>
<g>
</g>
<g>
</g>
<g>
</g>
<g>
</g>
<g>
</g>
<g>
</g>
<g>
</g>
<g>
</g>
<g>
</g>
<g>
</g>
<g>
</g>
<g>
</g>
<g>
</g>
<g>
</g>
<g>
</g>
</svg>
