<?xml version="1.0" encoding="utf-8"?>
<!-- Generator: Adobe Illustrator 18.0.0, SVG Export Plug-In . SVG Version: 6.00 Build 0)  -->
<!DOCTYPE svg PUBLIC "-//W3C//DTD SVG 1.1//EN" "http://www.w3.org/Graphics/SVG/1.1/DTD/svg11.dtd">
<svg version="1.1" id="Capa_1" xmlns="http://www.w3.org/2000/svg" xmlns:xlink="http://www.w3.org/1999/xlink" x="0px" y="0px"
	 width="1000px" height="1000px" viewBox="0 0 1000 1000" enable-background="new 0 0 1000 1000" xml:space="preserve">
<path d="M922,94.1H77c-38.7,0-70,31.3-70,70s31.3,70,70,70h845c38.7,0,70-31.3,70-70S960.7,94.1,922,94.1z"/>
<path d="M992,645.4c0-38.7-31.3-70-70-70H77c-38.7,0-70,31.3-70,70s31.3,70,70,70h845C960.7,715.4,992,684,992,645.4z"/>
<path d="M77,474.7h695.4c38.7,0,70-31.3,70-70s-31.3-70-70-70H77c-38.7,0-70,31.3-70,70S38.3,474.7,77,474.7z"/>
<path d="M599.3,886c0-38.7-31.3-70-70-70H77c-38.7,0-70,31.3-70,70s31.3,70,70,70h452.3C568,956,599.3,924.7,599.3,886z"/>
</svg>
