<?xml version="1.0" encoding="utf-8"?>
<!-- Generator: Adobe Illustrator 16.0.0, SVG Export Plug-In . SVG Version: 6.00 Build 0)  -->
<!DOCTYPE svg PUBLIC "-//W3C//DTD SVG 1.1//EN" "http://www.w3.org/Graphics/SVG/1.1/DTD/svg11.dtd">
<svg version="1.1" id="Layer_1" xmlns="http://www.w3.org/2000/svg" xmlns:xlink="http://www.w3.org/1999/xlink" x="0px" y="0px"
	 width="100px" height="100px" viewBox="0 0 100 100" enable-background="new 0 0 100 100" xml:space="preserve">
<path d="M86.667,16.375h-3.833v-8.5c0-0.828-0.671-1.5-1.5-1.5H18c-0.829,0-1.5,0.672-1.5,1.5v8.5h-3.167
	c-0.829,0-1.5,0.672-1.5,1.5s0.671,1.5,1.5,1.5H16.5v8.5c0,0.828,0.671,1.5,1.5,1.5h63.333c0.829,0,1.5-0.672,1.5-1.5v-8.5h2.333
	v12.213L49.03,48.517c-0.527,0.247-0.864,0.776-0.864,1.358V57.1h-3.833c-0.829,0-1.5,0.672-1.5,1.5v35.526
	c0,0.828,0.671,1.5,1.5,1.5h11c0.829,0,1.5-0.672,1.5-1.5V58.6c0-0.828-0.671-1.5-1.5-1.5h-4.167v-6.271L87.303,33.9
	c0.527-0.247,0.864-0.776,0.864-1.358V17.875C88.167,17.047,87.495,16.375,86.667,16.375z M77,13.375H53.333
	c-0.829,0-1.5-0.672-1.5-1.5s0.671-1.5,1.5-1.5H77c0.829,0,1.5,0.672,1.5,1.5S77.829,13.375,77,13.375z M51.333,61.405
	c0.829,0,1.5,0.672,1.5,1.5v18.304c0,0.828-0.671,1.5-1.5,1.5s-1.5-0.672-1.5-1.5V62.905C49.833,62.077,50.504,61.405,51.333,61.405
	z"/>
</svg>
