<?xml version="1.0" encoding="utf-8"?>
<!-- Generator: Adobe Illustrator 15.0.0, SVG Export Plug-In . SVG Version: 6.00 Build 0)  -->
<!DOCTYPE svg PUBLIC "-//W3C//DTD SVG 1.1//EN" "http://www.w3.org/Graphics/SVG/1.1/DTD/svg11.dtd">
<svg version="1.1" id="Layer_1" xmlns="http://www.w3.org/2000/svg" xmlns:xlink="http://www.w3.org/1999/xlink" x="0px" y="0px"
	 width="26px" height="26px" viewBox="0 0 26 26" enable-background="new 0 0 26 26" xml:space="preserve">
<path d="M17.616,10.078l-4.495-4.539l-0.65-0.672l-1.535,1.508C8.312,6,6.426,6.965,5.758,8.152
	c-0.811,1.441,0.018,3.014,0.044,3.062c0.693,1.385,1.689,2.216,2.961,2.473c0.279,0.055,0.56,0.08,0.84,0.08
	c1.322,0,2.644-0.561,3.649-1.135c0.271,0.188,0.601,0.299,0.954,0.299c0.93,0,1.686-0.759,1.686-1.691s-0.756-1.69-1.686-1.69
	s-1.686,0.758-1.686,1.69c0,0.093,0.013,0.184,0.027,0.274c-1.012,0.575-2.347,1.116-3.528,0.878
	c-0.865-0.175-1.533-0.753-2.051-1.788c-0.005-0.01-0.516-1.003-0.065-1.803c0.38-0.676,1.371-1.111,2.883-1.275L9.551,7.763
	l-2.172,2.18c0.023,0.053,0.04,0.085,0.041,0.087c0.209,0.418,0.444,0.758,0.706,1.03l3.932-3.943
	c0.187-0.187,0.435-0.29,0.698-0.29c0.263,0,0.513,0.103,0.698,0.29l4.771,4.787c0.385,0.385,0.385,1.014,0,1.399l-6.202,6.221
	c-0.372,0.373-1.023,0.373-1.396,0l-4.772-4.787c-0.187-0.186-0.289-0.434-0.289-0.699c0-0.264,0.102-0.514,0.289-0.7L6.37,12.82
	c-0.293-0.302-0.553-0.664-0.786-1.078l-0.66,0.663c-0.435,0.436-0.675,1.016-0.675,1.633c0,0.617,0.24,1.197,0.675,1.633
	l4.772,4.787c0.435,0.436,1.012,0.676,1.628,0.676c0.614,0,1.193-0.24,1.628-0.676l6.201-6.221l1.301-1.293l-0.361-0.365
	c0.683-0.373,0.987,2.744,0.987,2.744s0.954,7.439,1.802,0C23.692,8.204,18.103,9.916,17.616,10.078z"/>
</svg>
