<?xml version="1.0" encoding="utf-8"?>
<!-- Generator: Adobe Illustrator 16.0.4, SVG Export Plug-In . SVG Version: 6.00 Build 0)  -->
<!DOCTYPE svg PUBLIC "-//W3C//DTD SVG 1.1//EN" "http://www.w3.org/Graphics/SVG/1.1/DTD/svg11.dtd">
<svg version="1.1" id="Capa_1" xmlns="http://www.w3.org/2000/svg" xmlns:xlink="http://www.w3.org/1999/xlink" x="0px" y="0px"
	 width="16px" height="16px" viewBox="0 0 16 16" enable-background="new 0 0 16 16" xml:space="preserve">
<path d="M8.5,1C4.358,1,1,4.358,1,8.5C1,12.643,4.358,16,8.5,16c4.143,0,7.5-3.357,7.5-7.5C16,4.358,12.643,1,8.5,1z M12.5,9H9v3.5
	C9,12.775,8.775,13,8.5,13C8.224,13,8,12.775,8,12.5V9H4.5C4.224,9,4,8.775,4,8.5C4,8.224,4.224,8,4.5,8H8V4.5
	C8,4.224,8.224,4,8.5,4C8.775,4,9,4.224,9,4.5V8h3.5C12.775,8,13,8.224,13,8.5C13,8.775,12.775,9,12.5,9z"/>
</svg>
