<?xml version="1.0" encoding="utf-8"?>
<!-- Generator: Adobe Illustrator 18.0.0, SVG Export Plug-In . SVG Version: 6.00 Build 0)  -->
<!DOCTYPE svg PUBLIC "-//W3C//DTD SVG 1.1//EN" "http://www.w3.org/Graphics/SVG/1.1/DTD/svg11.dtd">
<svg version="1.1" id="Capa_1" xmlns="http://www.w3.org/2000/svg" xmlns:xlink="http://www.w3.org/1999/xlink" x="0px" y="0px"
	 width="1000px" height="1000px" viewBox="0 0 1000 1000" enable-background="new 0 0 1000 1000" xml:space="preserve">
<path d="M78.5,234.1h845c38.7,0,70-31.3,70-70s-31.3-70-70-70h-845c-38.7,0-70,31.3-70,70S39.8,234.1,78.5,234.1z"/>
<path d="M923.5,575.4h-845c-38.7,0-70,31.3-70,70s31.3,70,70,70h845c38.7,0,70-31.3,70-70S962.2,575.4,923.5,575.4z"/>
<path d="M923.5,334.7H228.1c-38.7,0-70,31.3-70,70s31.3,70,70,70h695.4c38.7,0,70-31.3,70-70S962.2,334.7,923.5,334.7z"/>
<path d="M923.5,816H471.2c-38.7,0-70,31.3-70,70s31.3,70,70,70h452.3c38.7,0,70-31.3,70-70S962.2,816,923.5,816z"/>
</svg>
