<?xml version="1.0" encoding="utf-8"?>
<!-- Generator: Adobe Illustrator 16.0.4, SVG Export Plug-In . SVG Version: 6.00 Build 0)  -->
<!DOCTYPE svg PUBLIC "-//W3C//DTD SVG 1.1//EN" "http://www.w3.org/Graphics/SVG/1.1/DTD/svg11.dtd">
<svg version="1.1" id="Capa_1" xmlns="http://www.w3.org/2000/svg" xmlns:xlink="http://www.w3.org/1999/xlink" x="0px" y="0px"
	 width="512px" height="512px" viewBox="0 0 512 512" enable-background="new 0 0 512 512" xml:space="preserve">
<path d="M512,256v32H394.747C408.499,307.255,416,329.346,416,352c0,35.439-18.33,69.513-50.29,93.482
	C336.031,467.741,297.068,480,256,480c-41.069,0-80.031-12.259-109.71-34.518C114.33,421.513,96,387.439,96,352h64
	c0,34.691,43.963,64,96,64s96-29.309,96-64s-43.963-64-96-64H0v-32h149.759c-1.169-0.827-2.328-1.662-3.469-2.518
	C114.33,229.512,96,195.439,96,160s18.33-69.512,50.29-93.482C175.969,44.259,214.931,32,256,32
	c41.068,0,80.031,12.259,109.71,34.518C397.67,90.488,416,124.561,416,160h-64c0-34.691-43.963-64-96-64s-96,29.309-96,64
	s43.963,64,96,64c39.489,0,77.027,11.339,106.241,32H512z"/>
</svg>
