<?xml version="1.0" encoding="utf-8"?>
<!-- Generator: Adobe Illustrator 16.0.0, SVG Export Plug-In . SVG Version: 6.00 Build 0)  -->
<!DOCTYPE svg PUBLIC "-//W3C//DTD SVG 1.1//EN" "http://www.w3.org/Graphics/SVG/1.1/DTD/svg11.dtd">
<svg version="1.1" id="Capa_1" xmlns="http://www.w3.org/2000/svg" xmlns:xlink="http://www.w3.org/1999/xlink" x="0px" y="0px"
	 width="64px" height="64px" viewBox="0 0 64 64" enable-background="new 0 0 64 64" xml:space="preserve">
<path d="M62.188,54.356L47.225,38.898c-1.073-1.109-2.414-1.553-2.995-0.986c-0.583,0.563-1.925,0.12-2.998-0.989l-0.214-0.222
	c6.697-8.808,6.047-21.419-1.995-29.461c-8.777-8.777-23.008-8.777-31.784,0c-8.777,8.777-8.777,23.006,0,31.783
	c8.179,8.18,21.088,8.728,29.914,1.663l0.094,0.098c1.071,1.109,1.47,2.464,0.885,3.028c-0.582,0.564-0.186,1.92,0.888,3.027
	l14.955,15.464c1.073,1.106,2.841,1.139,3.951,0.065l4.197-4.061C63.229,57.236,63.259,55.469,62.188,54.356z M34.084,34.084
	c-6.04,6.041-15.869,6.041-21.908,0.002c-6.04-6.04-6.039-15.87,0-21.909c6.039-6.04,15.868-6.039,21.906,0.001
	C40.123,18.217,40.123,28.045,34.084,34.084z"/>
</svg>
